<svg width="117" height="119" viewBox="0 0 117 119" fill="none" xmlns="http://www.w3.org/2000/svg">
<path d="M0 29.5C0 14.3122 12.3122 2 27.5 2V2C42.6878 2 55 14.3122 55 29.5V57H27.5C12.3122 57 0 44.6878 0 29.5V29.5Z" fill="#7338A0"/>
<path d="M89.5 55C74.3122 55 62 42.6878 62 27.5V27.5C62 12.3122 74.3122 0 89.5 0H117V27.5C117 42.6878 104.688 55 89.5 55V55Z" fill="#4A2574"/>
<path d="M117 91.5C117 106.688 104.688 119 89.5 119V119C74.3122 119 62 106.688 62 91.5V64H89.5C104.688 64 117 76.3122 117 91.5V91.5Z" fill="#7338A0"/>
<path d="M27.5 119C12.3122 119 0 106.688 0 91.5V91.5C0 76.3122 12.3122 64 27.5 64H55V91.5C55 106.688 42.6878 119 27.5 119V119Z" fill="#7338A0"/>
</svg>
